<svg width="16" height="16" viewBox="0 0 16 16" fill="none" xmlns="http://www.w3.org/2000/svg">
<path d="M8 0.75C8.95206 0.75 9.89483 0.937432 10.7744 1.30176C11.654 1.6661 12.4537 2.19982 13.127 2.87305C13.8002 3.54627 14.3339 4.34598 14.6982 5.22559C15.0626 6.10517 15.25 7.04794 15.25 8C15.25 8.95206 15.0626 9.89483 14.6982 10.7744C14.3339 11.654 13.8002 12.4537 13.127 13.127C12.4537 13.8002 11.654 14.3339 10.7744 14.6982C9.89483 15.0626 8.95206 15.25 8 15.25C7.04794 15.25 6.10517 15.0626 5.22559 14.6982C4.34598 14.3339 3.54627 13.8002 2.87305 13.127C2.19982 12.4537 1.6661 11.654 1.30176 10.7744C0.937432 9.89483 0.75 8.95206 0.75 8L0.758789 7.64355C0.799659 6.81327 0.982968 5.99524 1.30176 5.22559C1.6661 4.34598 2.19982 3.54627 2.87305 2.87305C3.54627 2.19982 4.34598 1.6661 5.22559 1.30176C6.10518 0.937432 7.04794 0.75 8 0.75Z" fill="#03421C" stroke="#03421C" stroke-width="1.5" stroke-linecap="square" stroke-linejoin="round"/>
<path d="M11 8.5H8V5" stroke="#FFF6E9" stroke-width="2" stroke-linecap="square"/>
</svg>
