<svg width="24" height="24" viewBox="0 0 24 24" fill="none" xmlns="http://www.w3.org/2000/svg">
<path d="M19.9453 8.34277C19.6318 6.4464 17.9852 5 16 5C14.181 5 12.6457 6.21544 12.16 7.87796C12.1392 7.94943 12.0745 8 12 8C11.9255 8 11.8608 7.94943 11.84 7.87796C11.3543 6.21544 9.81896 5 8 5C6.01471 5 4.3672 6.44632 4.05371 8.34277C4.05184 8.35315 4.04963 8.36353 4.04785 8.37402C4.04505 8.39183 4.04358 8.40985 4.04102 8.42773C4.01464 8.60171 4 8.79173 4 8.99902C4.00004 14.2499 11.3125 18.617 11.6562 18.8155C11.8691 18.9384 12.1309 18.9383 12.3438 18.8154C12.6875 18.617 20 14.2499 20 8.99902C20 8.79167 19.9844 8.60175 19.958 8.42773C19.9554 8.40985 19.954 8.39183 19.9512 8.37402C19.9494 8.36352 19.9472 8.35315 19.9453 8.34277Z" fill="#03421C" stroke="#03421C" stroke-width="1.5"/>
</svg>
