<svg width="16" height="16" viewBox="0 0 16 16" fill="none" xmlns="http://www.w3.org/2000/svg">
<rect width="16" height="16" rx="8" fill="#008938"/>
<path d="M6.63477 6.41521L4.31182 6.7677L4.27068 6.77646C4.20839 6.79377 4.15162 6.82806 4.10614 6.87584C4.06066 6.92363 4.02812 6.98319 4.01183 7.04844C3.99554 7.11369 3.99608 7.1823 4.01342 7.24726C4.03075 7.31222 4.06424 7.3712 4.11047 7.41818L5.79334 9.13261L5.39647 11.5543L5.39174 11.5962C5.38792 11.6636 5.4013 11.7309 5.43049 11.7911C5.45969 11.8514 5.50365 11.9024 5.55789 11.939C5.61212 11.9756 5.67467 11.9965 5.73914 11.9994C5.80361 12.0024 5.86767 11.9874 5.92478 11.956L8.00232 10.8127L10.0751 11.956L10.1115 11.9735C10.1716 11.9983 10.237 12.0059 10.3008 11.9955C10.3646 11.9851 10.4247 11.9572 10.4748 11.9145C10.5249 11.8719 10.5632 11.816 10.5859 11.7527C10.6086 11.6894 10.6148 11.6209 10.6038 11.5543L10.2066 9.13261L11.8902 7.4178L11.9186 7.38541C11.9591 7.33312 11.9857 7.2705 11.9956 7.20394C12.0056 7.13739 11.9985 7.06927 11.975 7.00652C11.9516 6.94378 11.9127 6.88866 11.8623 6.84677C11.8119 6.80489 11.7518 6.77773 11.6881 6.76808L9.36514 6.41521L8.32673 4.21263C8.29669 4.14881 8.25017 4.09507 8.19245 4.05749C8.13473 4.01992 8.06811 4 8.00014 4C7.93216 4 7.86554 4.01992 7.80782 4.05749C7.7501 4.09507 7.70359 4.14881 7.67354 4.21263L6.63477 6.41521Z" fill="white"/>
</svg>
