<svg width="12" height="12" viewBox="0 0 12 12" fill="none" xmlns="http://www.w3.org/2000/svg">
<rect width="12" height="12" rx="6" fill="#008938"/>
<path d="M4.97608 4.81141L3.23387 5.07577L3.20301 5.08235C3.1563 5.09532 3.11371 5.12105 3.0796 5.15688C3.0455 5.19272 3.02109 5.23739 3.00887 5.28633C2.99665 5.33527 2.99706 5.38673 3.01006 5.43545C3.02306 5.48417 3.04818 5.5284 3.08286 5.56364L4.345 6.84946L4.04735 8.66573L4.0438 8.69717C4.04094 8.74774 4.05097 8.79819 4.07287 8.84336C4.09477 8.88853 4.12774 8.9268 4.16842 8.95425C4.20909 8.9817 4.256 8.99735 4.30436 8.99958C4.35271 9.00181 4.40075 8.99056 4.44358 8.96697L6.00174 8.10956L7.55635 8.96697L7.58366 8.98012C7.62873 8.9987 7.67772 9.00439 7.72559 8.99662C7.77346 8.98885 7.8185 8.96789 7.85607 8.93589C7.89365 8.90389 7.92242 8.86201 7.93943 8.81453C7.95643 8.76706 7.96107 8.7157 7.95285 8.66573L7.65493 6.84946L8.91762 5.56335L8.93892 5.53906C8.96935 5.49984 8.9893 5.45287 8.99674 5.40296C9.00418 5.35304 8.99884 5.30195 8.98127 5.25489C8.96371 5.20784 8.93453 5.1665 8.89673 5.13508C8.85892 5.10367 8.81384 5.0833 8.76607 5.07606L7.02386 4.81141L6.24505 3.15947C6.22251 3.11161 6.18763 3.0713 6.14434 3.04312C6.10105 3.01494 6.05108 3 6.0001 3C5.94912 3 5.89916 3.01494 5.85587 3.04312C5.81258 3.0713 5.77769 3.11161 5.75516 3.15947L4.97608 4.81141Z" fill="white"/>
</svg>
