<svg width="16" height="16" viewBox="0 0 16 16" fill="none" xmlns="http://www.w3.org/2000/svg">
<path d="M12.6323 5.48218C12.4364 4.26308 11.4073 3.33325 10.1665 3.33325C9.02894 3.33325 8.06883 4.11559 7.76595 5.18538C7.7533 5.23009 7.71297 5.26182 7.6665 5.26182C7.62004 5.26182 7.57971 5.23009 7.56705 5.18538C7.26417 4.11559 6.30407 3.33325 5.1665 3.33325C3.9257 3.33325 2.896 4.26303 2.70007 5.48218C2.6989 5.48885 2.69752 5.49552 2.69641 5.50227C2.69466 5.51371 2.69374 5.5253 2.69214 5.5368C2.67566 5.64864 2.6665 5.77079 2.6665 5.90405C2.66653 9.27961 7.23682 12.087 7.45166 12.2146C7.58422 12.2933 7.74879 12.2933 7.88135 12.2146C8.09619 12.087 12.6665 9.27962 12.6665 5.90405C12.6665 5.77076 12.6567 5.64866 12.6403 5.5368C12.6387 5.5253 12.6377 5.51371 12.636 5.50227C12.6349 5.49552 12.6335 5.48885 12.6323 5.48218Z" stroke="#03421C" stroke-width="1.5"/>
</svg>
