<svg width="20" height="16" viewBox="0 0 20 16" fill="none" xmlns="http://www.w3.org/2000/svg">
<path d="M7.69511 10.1787C7.11729 9.60085 6.79267 8.81715 6.79267 7.99998C6.79267 7.18281 7.11729 6.39911 7.69511 5.82128L12.0525 10.1787C11.4747 10.7565 10.691 11.0811 9.87381 11.0811C9.05664 11.0811 8.27294 10.7565 7.69511 10.1787Z" fill="#00491E"/>
<path d="M14.4563 12.5667C13.0694 13.6304 11.5462 14.1623 9.87381 14.1623C6.58726 14.1623 3.84846 12.1082 1.65742 8C3.84846 3.8918 6.58726 1.83771 9.87381 1.83771C13.1604 1.83771 15.8992 3.8918 18.0902 8C17.9657 8.37356 17.7506 9.01888 17.4449 9.54057L17.0632 10.0541" stroke="#03421C" stroke-width="2" stroke-linecap="square"/>
<path d="M0.630371 0.810657L19.1173 15.1893" stroke="#00491E" stroke-width="2" stroke-linejoin="round"/>
</svg>
