<svg width="16" height="16" viewBox="0 0 16 16" fill="none" xmlns="http://www.w3.org/2000/svg">
<path d="M7.99951 1.56201C9.05413 1.56201 10.0855 1.87465 10.9624 2.46045C11.8394 3.04642 12.5236 3.87958 12.9272 4.854C13.3309 5.82853 13.4367 6.90148 13.231 7.93604C13.0252 8.97049 12.5168 9.92068 11.771 10.6665L7.99951 14.438L4.229 10.6665C3.48322 9.92069 2.97485 8.97047 2.76904 7.93604C2.56328 6.90148 2.66908 5.82853 3.07275 4.854C3.47645 3.87962 4.15966 3.04641 5.03662 2.46045C5.91358 1.8745 6.94482 1.56208 7.99951 1.56201ZM8.00244 4.896C7.47202 4.89601 6.96344 5.10687 6.58838 5.48193C6.21332 5.857 6.00244 6.36557 6.00244 6.896C6.00244 7.42642 6.21332 7.93499 6.58838 8.31006C6.96344 8.68512 7.47202 8.89599 8.00244 8.896C8.53287 8.896 9.04143 8.68512 9.4165 8.31006C9.79158 7.93499 10.0024 7.42643 10.0024 6.896C10.0024 6.36556 9.79158 5.85701 9.4165 5.48193C9.04143 5.10687 8.53287 4.896 8.00244 4.896Z" fill="#00491E"/>
</svg>
