<svg width="42" height="9" viewBox="0 0 42 9" fill="none" xmlns="http://www.w3.org/2000/svg">
<path fill-rule="evenodd" clip-rule="evenodd" d="M16.7874 5.13792C16.7874 4.75163 16.6023 4.52573 16.235 4.52573H15.2315V5.75322H16.235C16.6105 5.75287 16.7874 5.50914 16.7874 5.13792ZM15.2315 3.29534L16.1396 3.29557C16.4833 3.29557 16.6412 3.05414 16.6412 2.71637C16.6412 2.36527 16.4791 2.13741 16.1396 2.13741H15.2315V3.29534ZM18.7756 5.22449C18.7756 6.50521 17.8869 7.19213 16.57 7.19213H13.2855V0.727147H16.4589C17.8755 0.727607 18.5991 1.49374 18.5991 2.49682C18.5991 3.01347 18.3489 3.44896 17.854 3.77098C18.4281 4.08081 18.7756 4.54597 18.7756 5.22449ZM10.7058 5.19368C10.7058 5.48225 10.4502 5.71758 9.9599 5.71758C9.45529 5.71758 9.21405 5.48075 9.21405 5.19368V0.727147H7.25426V5.34498C7.25426 6.36886 8.12715 7.33101 9.95978 7.33101C11.6963 7.33101 12.6653 6.37668 12.6653 5.34498V0.727147H10.7058V5.19368ZM6.89883 5.32035C6.89871 6.32837 6.30631 6.93114 5.34349 7.12359C5.08833 7.1744 4.64367 7.179 4.34105 7.17923L2.03164 7.1636V8.01032L0 6.38792L2.03164 4.76495V5.61639L4.62547 5.63524C4.87076 5.63938 4.97425 5.50326 4.97425 5.36116C4.97425 5.10433 4.72075 5.01719 3.98953 4.68229C2.8133 4.14379 1.89128 3.75463 1.89128 2.50967C1.89128 1.54545 2.61262 0.87336 3.67133 0.739655C3.88687 0.712638 4.28074 0.704016 4.53994 0.707925C5.07108 0.716317 6.55279 0.739425 6.55279 0.739425V2.2948L4.11693 2.25628C3.90543 2.25295 3.80182 2.38459 3.80182 2.52082C3.80182 2.71971 3.97038 2.80226 4.65878 3.11588C6.10468 3.77464 6.89883 4.12011 6.89883 5.32035Z" fill="#008938"/>
<path fill-rule="evenodd" clip-rule="evenodd" d="M31.1313 3.89525L31.131 2.76024C31.131 2.45795 30.91 2.24011 30.3919 2.24011C29.8706 2.24011 29.6523 2.46078 29.6523 2.76024V3.89525H31.1313ZM33.0778 2.65199V7.19678H31.13V5.35487H29.6511L29.6512 7.19678H27.7038V2.65199C27.7038 1.51065 28.687 0.653062 30.3905 0.653062C32.0764 0.653062 33.0778 1.50375 33.0778 2.65199ZM35.4978 3.33754L35.4977 0.838709H33.5603V3.52034C33.5603 4.40755 34.1981 5.08188 35.2693 5.35761L35.2694 7.19646H37.2487V5.35761C38.3367 5.07578 38.9389 4.40427 38.9389 3.52034V2.53693C38.9389 2.44321 38.988 2.38725 39.1012 2.38725L39.9702 2.38702V3.19182L42 1.59591L39.9702 0V0.800046H38.6238C37.4829 0.800046 37.0022 1.42792 37.0022 2.33536V3.33754C37.0022 3.57698 36.831 3.85711 36.2501 3.85711C35.6691 3.85711 35.4978 3.57698 35.4978 3.33754ZM25.1428 0.838852H27.097V5.32293C27.097 6.35902 26.3231 7.30366 24.69 7.30366C23.9926 7.30366 23.4508 7.1048 23.054 6.80737C22.6638 7.10379 22.1405 7.30366 21.4847 7.30366C19.7384 7.30366 19.0245 6.36038 19.0245 5.32293V0.838852H20.9786V5.28212C20.9786 5.46311 21.0868 5.6917 21.5264 5.6917C21.9716 5.6917 22.0844 5.47442 22.0844 5.28212V0.838852H24.0373V5.28212C24.0373 5.46933 24.1414 5.6917 24.5885 5.6917C25.035 5.6917 25.1428 5.47871 25.1428 5.28212V0.838852Z" fill="#F1B71C"/>
<path fill-rule="evenodd" clip-rule="evenodd" d="M38.172 7.00562C38.0041 7.00562 37.8659 6.8739 37.8659 6.7138C37.8659 6.55382 38.0041 6.42198 38.172 6.42198C38.3398 6.42198 38.4779 6.55382 38.4779 6.7138C38.4779 6.8739 38.3398 7.00562 38.172 7.00562ZM38.1715 6.36035C37.9674 6.36035 37.8008 6.51927 37.8008 6.71374C37.8008 6.90832 37.9674 7.06712 38.1715 7.06712C38.3754 7.06712 38.542 6.90832 38.542 6.71374C38.542 6.51927 38.3754 6.36035 38.1715 6.36035ZM38.1978 6.69527H38.1037V6.59191H38.1978C38.2315 6.59191 38.2585 6.60792 38.2585 6.64347C38.2585 6.67808 38.2315 6.69527 38.1978 6.69527ZM38.3338 6.62962C38.3338 6.56924 38.2834 6.53604 38.2175 6.53474H38.0342V6.87836H38.1041V6.75028H38.1879C38.2331 6.75028 38.2602 6.77112 38.2602 6.81185V6.87836H38.33V6.78842C38.3287 6.75146 38.3066 6.72933 38.2744 6.72074V6.71826C38.3183 6.69731 38.3338 6.67153 38.3338 6.62962Z" fill="#008938"/>
</svg>
