<svg width="50" height="50" viewBox="0 0 50 50" fill="none" xmlns="http://www.w3.org/2000/svg">
<rect width="50" height="50" rx="25" fill="#068332"/>
<mask id="mask0_1834_2300" style="mask-type:luminance" maskUnits="userSpaceOnUse" x="11" y="7" width="28" height="23">
<path fill-rule="evenodd" clip-rule="evenodd" d="M11.3633 7.57617H38.1654V29.1961H11.3633V7.57617Z" fill="white"/>
</mask>
<g mask="url(#mask0_1834_2300)">
<path fill-rule="evenodd" clip-rule="evenodd" d="M23.4265 10.9926C16.6334 10.9926 11.3633 14.7753 11.3633 21.4469C11.3633 24.9699 13.2229 27.7171 15.8429 29.1952L25.5958 29.1963C26.2164 29.1963 26.4671 28.8953 26.4671 28.497C26.4671 27.9323 25.9574 27.7068 24.4386 26.9765C21.0955 25.3671 19.4524 24.4579 19.4524 21.7582C19.4524 19.7391 20.8479 18.1814 23.1146 17.8173C23.5114 17.7542 24.0501 17.718 24.6904 17.718H29.9626V21.1345L38.1656 14.3553L29.9626 7.57617V10.9926H23.4265Z" fill="#F8EAD8"/>
</g>
<mask id="mask1_1834_2300" style="mask-type:luminance" maskUnits="userSpaceOnUse" x="11" y="21" width="28" height="22">
<path fill-rule="evenodd" clip-rule="evenodd" d="M11.5352 21.1367H38.6635V42.7471H11.5352V21.1367Z" fill="white"/>
</mask>
<g mask="url(#mask1_1834_2300)">
<path fill-rule="evenodd" clip-rule="evenodd" d="M19.7382 39.331V42.7475L11.5352 35.9683L19.7382 29.1985V32.6056H25.1575C25.5543 32.6056 26.0702 32.585 26.4328 32.5446C28.8167 32.2788 30.5364 31.1358 30.5364 28.4693C30.5364 25.6786 28.6167 24.7766 25.4662 23.2716C23.8936 22.5197 23.5113 22.2518 23.5113 21.778C23.5113 21.3788 23.7879 21.1367 24.2717 21.1367H33.9013C40.6198 25.2348 39.1445 32.3336 36.0759 35.748C33.9386 38.1281 30.4711 39.331 26.3676 39.331H19.7382Z" fill="#F8EAD8"/>
</g>
<path fill-rule="evenodd" clip-rule="evenodd" d="M35.4404 39.8531C35.0496 39.8531 34.7267 39.5325 34.7267 39.1405C34.7267 38.7502 35.0496 38.4296 35.4404 38.4296C35.8313 38.4296 36.1525 38.7502 36.1525 39.1405C36.1525 39.5325 35.8313 39.8531 35.4404 39.8531ZM35.4415 38.2773C34.9656 38.2773 34.5781 38.6642 34.5781 39.1376C34.5781 39.6127 34.9656 40.0013 35.4415 40.0013C35.9173 40.0013 36.3048 39.6127 36.3048 39.1376C36.3048 38.6642 35.9173 38.2773 35.4415 38.2773ZM35.5021 39.0959H35.2829V38.8431H35.5021C35.5803 38.8431 35.6432 38.8821 35.6432 38.9703C35.6432 39.0535 35.5803 39.0959 35.5021 39.0959ZM35.8153 38.9335C35.8153 38.7859 35.6981 38.7061 35.5451 38.7027H35.1185V39.5409H35.28V39.2287H35.4754C35.5808 39.2287 35.6437 39.2796 35.6437 39.378V39.5409H35.8068V39.3203C35.8034 39.2304 35.7524 39.1778 35.6777 39.1558V39.1507C35.7796 39.0981 35.8153 39.0353 35.8153 38.9335Z" fill="#F8EAD8"/>
</svg>
