<svg width="70" height="28" viewBox="0 0 70 28" fill="none" xmlns="http://www.w3.org/2000/svg">
<g clip-path="url(#clip0_342_22524)">
<path d="M69.9976 20.7656C69.965 21.6176 69.4529 22.4648 68.9362 23.0953C66.2597 26.3204 61.3209 27.8318 57.3223 28.0051H12.9195C8.15755 27.6152 1.27765 26.4552 -0.00244141 20.7704H69.9976V20.7656Z" fill="#FEBC11"/>
<path d="M0.030442 7.24423C0.0164774 6.17083 0.872974 5.07817 1.58052 4.35133C4.86686 0.977086 10.2246 -0.101133 14.7026 0.00957664C14.9493 0.495738 15.2333 0.967459 15.5451 1.41511C15.8244 1.81944 17.0161 3.33569 17.4024 3.45603C17.4862 3.48009 17.5747 3.47528 17.6585 3.47047C17.6491 2.82546 17.1883 2.29598 16.9183 1.75206L15.6569 0.00957664H27.5175C27.685 0.490924 28.0062 0.957832 28.2948 1.3766C28.5834 1.79538 29.7285 3.2683 30.1335 3.43677C30.2359 3.48009 30.4361 3.54748 30.4361 3.3742C30.4361 2.85434 29.8868 2.17564 29.668 1.71355L28.4298 0.00957664H40.2904C40.458 0.490924 40.7792 0.957832 41.0678 1.3766C41.3564 1.79538 42.5015 3.2683 42.9065 3.43677C43.0089 3.48009 43.2091 3.54748 43.2091 3.3742C43.2091 2.85434 42.6598 2.17564 42.441 1.71355L41.1982 0.00957664H53.0588C53.2822 0.731598 55.1674 3.34532 55.7679 3.46565C55.8377 3.48009 55.9076 3.46565 55.9774 3.46565C56.1589 3.28274 55.349 1.94459 55.214 1.70873L53.9711 0.00957664H56.8013C58.8448 0.144354 60.8883 0.404282 62.8619 0.972272C65.9155 1.84833 69.3788 3.6967 69.9653 7.24423H0.030442Z" fill="#068332"/>
<path d="M0.266602 15.8133H3.77172C3.79965 16.3042 4.06498 16.6941 4.81907 16.6941C5.40558 16.6941 5.58712 16.4631 5.58712 16.1454C5.58712 15.7844 5.2799 15.6111 4.45599 15.51C1.48152 15.1779 0.462106 14.3259 0.462106 12.131C0.462106 10.1237 2.01218 8.67969 4.66546 8.67969C7.31874 8.67969 8.68727 9.73384 8.85485 12.1021H5.41955C5.39162 11.6544 5.12629 11.3512 4.65149 11.3512C4.20463 11.3512 3.98119 11.5389 3.98119 11.8421C3.98119 12.1887 4.24652 12.3764 5.09836 12.4631C7.5701 12.7086 9.1481 13.3295 9.1481 15.7266C9.1481 17.6905 7.69578 19.3656 4.81907 19.3656C1.94236 19.3656 0.294531 18.297 0.266602 15.8133Z" fill="#068332"/>
<path d="M10.0386 14.7575V8.83691H13.7532V14.642C13.7532 15.7394 13.8928 16.3604 14.8843 16.3604C15.8758 16.3604 15.9456 15.6961 15.9456 14.6708V8.83691H19.6881V14.7719C19.6881 18.0355 17.747 19.364 14.8843 19.364C11.7981 19.364 10.0386 17.8333 10.0386 14.7575Z" fill="#068332"/>
<path d="M21.1846 8.83691H26.3934C29.0187 8.83691 29.8426 10.1654 29.8426 11.5517V11.6095C29.8426 12.8802 29.1584 13.6023 28.0552 13.8477C29.1584 14.0066 30.0521 14.7575 30.0521 16.2304V16.2882C30.0521 18.0932 28.9629 19.1618 26.2398 19.1618H21.1846V8.83691ZM25.5276 12.7358C26.1141 12.7358 26.3515 12.5337 26.3515 12.0716V12.0138C26.3515 11.5517 26.128 11.3062 25.5276 11.3062H24.8014V12.7358H25.5276ZM25.4717 16.6781C26.1001 16.6781 26.3934 16.3604 26.3934 15.8405V15.7828C26.3934 15.2629 26.128 14.9597 25.4298 14.9597H24.8014V16.6781H25.4717Z" fill="#068332"/>
<path d="M30.5405 14.066V13.9504C30.5405 10.7158 32.8307 8.67969 35.8471 8.67969C38.8634 8.67969 40.5392 9.97933 40.7906 12.9541H36.9363C36.8944 12.1743 36.5034 11.7122 35.861 11.7122C34.9813 11.7122 34.4646 12.4342 34.4646 13.936V14.0515C34.4646 15.51 34.9673 16.2898 35.9309 16.2898C36.6151 16.2898 37.1179 15.9143 37.2017 15.0479H40.9162C40.8045 17.8638 38.7936 19.3656 36.0286 19.3656C32.2302 19.3656 30.5405 17.2284 30.5405 14.066Z" fill="#FEBC11"/>
<path d="M41.873 8.83691H45.6016V16.216H48.9671V19.1618H41.873V8.83691Z" fill="#FEBC11"/>
<path d="M49.6719 14.7575V8.83691H53.3865V14.642C53.3865 15.7394 53.5261 16.3604 54.5176 16.3604C55.5091 16.3604 55.5789 15.6961 55.5789 14.6708V8.83691H59.3214V14.7719C59.3214 18.0355 57.3803 19.364 54.5176 19.364C51.4314 19.364 49.6719 17.8333 49.6719 14.7575Z" fill="#FEBC11"/>
<path d="M60.4668 8.83691H65.6756C68.301 8.83691 69.1249 10.1654 69.1249 11.5517V11.6095C69.1249 12.8802 68.4406 13.6023 67.3374 13.8477C68.4406 14.0066 69.3343 14.7575 69.3343 16.2304V16.2882C69.3343 18.0932 68.2451 19.1618 65.522 19.1618H60.4668V8.83691ZM64.8098 12.7358C65.3963 12.7358 65.6337 12.5337 65.6337 12.0716V12.0138C65.6337 11.5517 65.4103 11.3062 64.8098 11.3062H64.0836V12.7358H64.8098ZM64.7539 16.6781C65.3823 16.6781 65.6756 16.3604 65.6756 15.8405V15.7828C65.6756 15.2629 65.4103 14.9597 64.712 14.9597H64.0836V16.6781H64.7539Z" fill="#FEBC11"/>
</g>
<defs>
<clipPath id="clip0_342_22524">
<rect width="70" height="28" fill="white"/>
</clipPath>
</defs>
</svg>
