<svg width="46" height="32" viewBox="0 0 46 32" fill="none" xmlns="http://www.w3.org/2000/svg">
<rect x="0.5" y="0.5" width="45" height="31" rx="5.5" fill="#13A8E0"/>
<rect x="0.5" y="0.5" width="45" height="31" rx="5.5" stroke="#EBE3D9"/>
<path d="M4.23458 11.3406L3.35294 9.08697L2.47634 11.3406H4.23458ZM23.657 10.4432C23.48 10.5559 23.2706 10.5597 23.0198 10.5597H21.455V9.30403H23.0411C23.2656 9.30403 23.4998 9.3146 23.6519 9.406C23.819 9.48836 23.9224 9.66364 23.9224 9.90577C23.9224 10.1528 23.8241 10.3517 23.657 10.4432ZM34.8202 11.3406L33.9288 9.08697L33.0423 11.3406H34.8202ZM14.0113 13.78H12.6908L12.6859 9.35246L10.8181 13.78H9.68712L7.81445 9.34854V13.78H5.19456L4.69961 12.5191H2.01764L1.51765 13.78H0.118632L2.4253 8.12681H4.33909L6.52986 13.4792V8.12681H8.63221L10.318 11.9618L11.8665 8.12681H14.0111L14.0113 13.78ZM19.2743 13.78H14.9713V8.12681H19.2743V9.30403H16.2594V10.323H19.202V11.4818H16.2594V12.6108H19.2743V13.78ZM25.3414 9.64932C25.3414 10.5507 24.768 11.0163 24.4338 11.1561C24.7156 11.2687 24.9564 11.4675 25.0709 11.6322C25.2528 11.9134 25.2842 12.1646 25.2842 12.6694V13.78H23.985L23.9801 13.0671C23.9801 12.7269 24.0112 12.2377 23.7768 11.9657C23.5885 11.7669 23.3017 11.7238 22.8379 11.7238H21.4552V13.78H20.1672V8.12681H23.1298C23.7882 8.12681 24.2732 8.14506 24.6896 8.39759C25.0971 8.65011 25.3414 9.01876 25.3414 9.64932ZM27.4028 13.78H26.0885V8.12681H27.4028V13.78ZM42.6508 13.78H40.8254L38.3838 9.53695V13.78H35.7605L35.2592 12.5191H32.5834L32.0971 13.78H30.5898C29.9637 13.78 29.171 13.6347 28.722 13.1547C28.2693 12.6747 28.0338 12.0246 28.0338 10.9965C28.0338 10.1581 28.1746 9.39167 28.7282 8.78601C29.1446 8.33484 29.7968 8.12681 30.6844 8.12681H31.9315V9.33813H30.7106C30.2405 9.33813 29.9751 9.41145 29.7194 9.67302C29.4998 9.91106 29.3491 10.361 29.3491 10.9536C29.3491 11.5592 29.4639 11.9959 29.7033 12.2812C29.9016 12.5049 30.262 12.5728 30.601 12.5728H31.1795L32.995 8.12698H34.925L37.1059 13.4741V8.12698H39.0671L41.3314 12.0641V8.12698H42.6508V13.78ZM0.103516 14.8904H2.30453L2.80077 13.6347H3.91176L4.40671 14.8904H8.73705V13.9304L9.12358 14.8945H11.3716L11.7581 13.9161V14.8904H22.5198L22.5148 12.8292H22.723C22.8688 12.8345 22.9114 12.8487 22.9114 13.1012V14.8904H28.4774V14.4105C28.9263 14.6629 29.6246 14.8904 30.5435 14.8904H32.8851L33.3862 13.6347H34.4972L34.9873 14.8904H39.4997V13.6976L40.183 14.8904H43.799V7.00586H40.2204V7.93703L39.7193 7.00586H36.0472V7.93703L35.5871 7.00586H30.627C29.7968 7.00586 29.0669 7.12744 28.4774 7.46624V7.00586H25.0545V7.46624C24.6794 7.11703 24.1682 7.00586 23.5998 7.00586H11.0948L10.2557 9.04229L9.39405 7.00586H5.45528V7.93703L5.02259 7.00586H1.66345L0.103516 10.7546V14.8904Z" fill="white"/>
<path d="M45.9324 19.0601H43.5848C43.3504 19.0601 43.1947 19.0693 43.0635 19.1623C42.9276 19.2538 42.8753 19.3897 42.8753 19.5691C42.8753 19.7824 42.9901 19.9275 43.157 19.9903C43.2929 20.0399 43.4388 20.0544 43.6534 20.0544L44.3515 20.074C45.056 20.0922 45.5262 20.2193 45.813 20.5291C45.8651 20.5722 45.8965 20.6206 45.9324 20.6691V19.0601ZM45.9324 22.788C45.6195 23.268 45.0098 23.5114 44.1844 23.5114H41.6969V22.2988H44.1744C44.4201 22.2988 44.5921 22.2649 44.6956 22.1588C44.7854 22.0714 44.8479 21.9443 44.8479 21.79C44.8479 21.6253 44.7854 21.4945 44.6906 21.4161C44.5971 21.3298 44.4611 21.2906 44.2368 21.2906C43.0273 21.2475 41.5184 21.3298 41.5184 19.5405C41.5184 18.7203 42.0148 17.857 43.3665 17.857H45.9324V16.7319H43.5484C42.829 16.7319 42.3064 16.9127 41.9363 17.1937V16.7319H38.4102C37.8463 16.7319 37.1845 16.8786 36.8714 17.1937V16.7319H30.5748V17.1937C30.0737 16.8145 29.2281 16.7319 28.8378 16.7319H24.6845V17.1937C24.2881 16.7909 23.4064 16.7319 22.869 16.7319H18.2208L17.1571 17.9395L16.1608 16.7319H9.21729V24.6219H16.0302L17.1262 23.3952L18.1587 24.6219L22.3582 24.6258V22.7698H22.771C23.3282 22.7788 23.9854 22.7553 24.5652 22.4924V24.6217H28.029V22.5653H28.1961C28.4094 22.5653 28.4303 22.5746 28.4303 22.7981V24.6216H38.9528C39.6208 24.6216 40.3191 24.4422 40.7058 24.1167V24.6216H44.0435C44.7381 24.6216 45.4164 24.5194 45.9324 24.2579V22.788ZM40.7943 20.5291C41.0451 20.8014 41.1795 21.1451 41.1795 21.7271C41.1795 22.9435 40.455 23.5114 39.156 23.5114H36.6471V22.2988H39.1459C39.3902 22.2988 39.5635 22.2649 39.672 22.1588C39.7606 22.0714 39.8242 21.9443 39.8242 21.79C39.8242 21.6253 39.7554 21.4945 39.667 21.4161C39.5685 21.3298 39.4326 21.2906 39.2083 21.2906C38.0037 21.2475 36.4951 21.3298 36.4951 19.5405C36.4951 18.7203 36.9863 17.857 38.3367 17.857H40.9191V19.0605H38.5562C38.322 19.0605 38.1697 19.0697 38.0401 19.1626C37.899 19.2542 37.8467 19.3901 37.8467 19.5694C37.8467 19.7827 37.9665 19.9279 38.1285 19.9906C38.2644 20.0402 38.4104 20.0547 38.6298 20.0547L39.3232 20.0743C40.0225 20.0922 40.5025 20.2191 40.7943 20.5291ZM29.171 20.1799C28.9987 20.2871 28.7857 20.2963 28.535 20.2963H26.9702V19.0264H28.5563C28.7857 19.0264 29.0152 19.0315 29.171 19.1285C29.338 19.2201 29.4378 19.3952 29.4378 19.6371C29.4378 19.8791 29.338 20.074 29.171 20.1799ZM29.949 20.8836C30.2357 20.9946 30.4701 21.1936 30.58 21.3583C30.7619 21.6343 30.7882 21.892 30.7934 22.3904V23.5114H29.5002V22.8039C29.5002 22.4637 29.5314 21.96 29.292 21.6971C29.1038 21.4945 28.8169 21.4461 28.3469 21.4461H26.9704V23.5114H25.676V17.8568H28.6499C29.3021 17.8568 29.777 17.887 30.1998 18.1237C30.6063 18.3813 30.862 18.7343 30.862 19.3793C30.8618 20.2818 30.288 20.7424 29.949 20.8836ZM31.5762 17.8568H35.8753V19.0262H32.859V20.0542H35.8017V21.2079H32.859V22.3329L35.8753 22.3381V23.5114H31.5762V17.8568ZM22.8855 20.4663H21.2208V19.0264H22.9004C23.3655 19.0264 23.6883 19.2252 23.6883 19.7197C23.6883 20.2087 23.3804 20.4663 22.8855 20.4663ZM19.9379 22.9971L17.9602 20.6938L19.9379 18.4637V22.9971ZM14.8306 22.3329H11.6636V21.2079H14.4915V20.0542H11.6636V19.0262H14.893L16.3019 20.674L14.8306 22.3329ZM25.0712 19.7197C25.0712 21.2904 23.954 21.6147 22.8281 21.6147H21.2208V23.5114H18.7172L17.1311 21.6395L15.4827 23.5114H10.3805V17.8568H15.5612L17.146 19.7103L18.7845 17.8568H22.9004C23.9227 17.8568 25.0712 18.1537 25.0712 19.7197Z" fill="white"/>
</svg>
