<svg width="46" height="32" viewBox="0 0 46 32" fill="none" xmlns="http://www.w3.org/2000/svg">
<rect x="0.5" y="0.5" width="45" height="31" rx="5.5" fill="#10427A"/>
<rect x="0.5" y="0.5" width="45" height="31" rx="5.5" stroke="#EBE3D9"/>
<path d="M14.8514 25.4103V24.2191C14.8514 23.7625 14.5448 23.4647 14.019 23.4647C13.7562 23.4647 13.4714 23.5441 13.2743 23.8022C13.121 23.5838 12.9019 23.4647 12.5733 23.4647C12.3543 23.4647 12.1352 23.5243 11.96 23.7426V23.5044H11.5V25.4103H11.96V24.3581C11.96 24.0206 12.1571 23.8618 12.4638 23.8618C12.7705 23.8618 12.9238 24.0404 12.9238 24.3581V25.4103H13.3838V24.3581C13.3838 24.0206 13.6029 23.8618 13.8876 23.8618C14.1943 23.8618 14.3476 24.0404 14.3476 24.3581V25.4103H14.8514ZM21.6638 23.5044H20.919V22.9287H20.459V23.5044H20.0429V23.8816H20.459V24.7551C20.459 25.1919 20.6562 25.45 21.1819 25.45C21.379 25.45 21.5981 25.3904 21.7514 25.311L21.62 24.9537C21.4886 25.0331 21.3352 25.0529 21.2257 25.0529C21.0067 25.0529 20.919 24.9338 20.919 24.7353V23.8816H21.6638V23.5044ZM25.5629 23.4647C25.3 23.4647 25.1248 23.5838 25.0152 23.7426V23.5044H24.5552V25.4103H25.0152V24.3382C25.0152 24.0206 25.1686 23.8419 25.4533 23.8419C25.541 23.8419 25.6505 23.8618 25.7381 23.8816L25.8695 23.4846C25.7819 23.4647 25.6505 23.4647 25.5629 23.4647ZM19.6705 23.6632C19.4514 23.5243 19.1448 23.4647 18.8162 23.4647C18.2905 23.4647 17.94 23.7029 17.94 24.0801C17.94 24.3978 18.2029 24.5765 18.6629 24.636L18.8819 24.6559C19.1229 24.6956 19.2543 24.7551 19.2543 24.8544C19.2543 24.9934 19.079 25.0926 18.7724 25.0926C18.4657 25.0926 18.2248 24.9934 18.0714 24.8941L17.8524 25.2118C18.0933 25.3706 18.4219 25.45 18.7505 25.45C19.3638 25.45 19.7143 25.1919 19.7143 24.8346C19.7143 24.4971 19.4295 24.3184 18.9914 24.2588L18.7724 24.239C18.5752 24.2191 18.4219 24.1794 18.4219 24.0603C18.4219 23.9213 18.5752 23.8419 18.8162 23.8419C19.079 23.8419 19.3419 23.9412 19.4733 24.0007L19.6705 23.6632ZM31.8933 23.4647C31.6305 23.4647 31.4552 23.5838 31.3457 23.7426V23.5044H30.8857V25.4103H31.3457V24.3382C31.3457 24.0206 31.499 23.8419 31.7838 23.8419C31.8714 23.8419 31.981 23.8618 32.0686 23.8816L32.2 23.4846C32.1124 23.4647 31.981 23.4647 31.8933 23.4647ZM26.0229 24.4574C26.0229 25.0331 26.461 25.45 27.14 25.45C27.4467 25.45 27.6657 25.3904 27.8848 25.2316L27.6657 24.8941C27.4905 25.0132 27.3152 25.0728 27.1181 25.0728C26.7457 25.0728 26.4829 24.8346 26.4829 24.4574C26.4829 24.1 26.7457 23.8618 27.1181 23.8419C27.3152 23.8419 27.4905 23.9015 27.6657 24.0206L27.8848 23.6831C27.6657 23.5243 27.4467 23.4647 27.14 23.4647C26.461 23.4647 26.0229 23.8816 26.0229 24.4574ZM30.2724 24.4574V23.5044H29.8124V23.7426C29.659 23.564 29.44 23.4647 29.1552 23.4647C28.5638 23.4647 28.1038 23.8816 28.1038 24.4574C28.1038 25.0331 28.5638 25.45 29.1552 25.45C29.4619 25.45 29.681 25.3507 29.8124 25.1721V25.4103H30.2724V24.4574ZM28.5857 24.4574C28.5857 24.1199 28.8267 23.8419 29.221 23.8419C29.5933 23.8419 29.8562 24.1 29.8562 24.4574C29.8562 24.7949 29.5933 25.0728 29.221 25.0728C28.8267 25.0529 28.5857 24.7949 28.5857 24.4574ZM23.0876 23.4647C22.4743 23.4647 22.0362 23.8618 22.0362 24.4574C22.0362 25.0529 22.4743 25.45 23.1095 25.45C23.4162 25.45 23.7229 25.3706 23.9638 25.1919L23.7448 24.8941C23.5695 25.0132 23.3505 25.0926 23.1314 25.0926C22.8467 25.0926 22.5619 24.9735 22.4962 24.636H24.0514V24.4772C24.0733 23.8618 23.679 23.4647 23.0876 23.4647ZM23.0876 23.8221C23.3724 23.8221 23.5695 23.9809 23.6133 24.2787H22.5181C22.5619 24.0206 22.759 23.8221 23.0876 23.8221ZM34.5 24.4574V22.75H34.04V23.7426C33.8867 23.564 33.6676 23.4647 33.3829 23.4647C32.7914 23.4647 32.3314 23.8816 32.3314 24.4574C32.3314 25.0331 32.7914 25.45 33.3829 25.45C33.6895 25.45 33.9086 25.3507 34.04 25.1721V25.4103H34.5V24.4574ZM32.8133 24.4574C32.8133 24.1199 33.0543 23.8419 33.4486 23.8419C33.821 23.8419 34.0838 24.1 34.0838 24.4574C34.0838 24.7949 33.821 25.0728 33.4486 25.0728C33.0543 25.0529 32.8133 24.7949 32.8133 24.4574ZM17.4362 24.4574V23.5044H16.9762V23.7426C16.8229 23.564 16.6038 23.4647 16.319 23.4647C15.7276 23.4647 15.2676 23.8816 15.2676 24.4574C15.2676 25.0331 15.7276 25.45 16.319 25.45C16.6257 25.45 16.8448 25.3507 16.9762 25.1721V25.4103H17.4362V24.4574ZM15.7276 24.4574C15.7276 24.1199 15.9686 23.8419 16.3629 23.8419C16.7352 23.8419 16.9981 24.1 16.9981 24.4574C16.9981 24.7949 16.7352 25.0728 16.3629 25.0728C15.9686 25.0529 15.7276 24.7949 15.7276 24.4574Z" fill="white"/>
<ellipse cx="18.2846" cy="13.8628" rx="7.475" ry="7.3125" fill="#D32011"/>
<ellipse cx="27.4848" cy="13.8628" rx="7.475" ry="7.3125" fill="#F79E1B"/>
<ellipse cx="18.2846" cy="13.8628" rx="7.475" ry="7.3125" fill="#EB001B" fill-opacity="0.3"/>
</svg>
