<svg width="46" height="32" viewBox="0 0 46 32" fill="none" xmlns="http://www.w3.org/2000/svg">
<rect x="0.5" y="0.5" width="45" height="31" rx="5.5" fill="white" stroke="#EBE3D9"/>
<path fill-rule="evenodd" clip-rule="evenodd" d="M13.0112 20.3213H10.9667C10.8268 20.3213 10.7078 20.4244 10.686 20.5645L9.85908 25.8833C9.84264 25.9882 9.92276 26.0828 10.0277 26.0828H11.0038C11.1437 26.0828 11.2627 25.9797 11.2845 25.8393L11.5075 24.4048C11.529 24.2643 11.6483 24.1613 11.7879 24.1613H12.4352C13.782 24.1613 14.5592 23.5001 14.7623 22.1899C14.8537 21.6167 14.7661 21.1663 14.5015 20.8508C14.211 20.5046 13.6955 20.3213 13.0112 20.3213ZM13.2471 22.2639C13.1353 23.0082 12.5748 23.0082 12.0328 23.0082H11.7242L11.9407 21.6181C11.9535 21.5342 12.0253 21.4723 12.109 21.4723H12.2504C12.6196 21.4723 12.9679 21.4723 13.1479 21.6858C13.2551 21.8132 13.2881 22.0024 13.2471 22.2639ZM19.1228 22.24H18.1437C18.0603 22.24 17.9882 22.3019 17.9754 22.386L17.9321 22.6638L17.8636 22.5631C17.6516 22.251 17.179 22.1467 16.7073 22.1467C15.6253 22.1467 14.7013 22.978 14.5213 24.1442C14.4278 24.7258 14.5607 25.282 14.886 25.6699C15.1844 26.0266 15.6113 26.1752 16.1192 26.1752C16.9909 26.1752 17.4744 25.6065 17.4744 25.6065L17.4307 25.8826C17.4142 25.9881 17.4943 26.0827 17.5986 26.0827H18.4806C18.6209 26.0827 18.7392 25.9795 18.7613 25.8392L19.2905 22.4396C19.3072 22.335 19.2274 22.24 19.1228 22.24ZM17.758 24.1732C17.6635 24.7407 17.2196 25.1216 16.6535 25.1216C16.3692 25.1216 16.1419 25.0291 15.996 24.8538C15.8513 24.6798 15.7963 24.4319 15.8423 24.156C15.9306 23.5933 16.382 23.2 16.9396 23.2C17.2175 23.2 17.4436 23.2936 17.5924 23.4705C17.7416 23.6492 17.8008 23.8984 17.758 24.1732ZM23.3533 22.2399H24.3372C24.475 22.2399 24.5554 22.3967 24.4771 22.5113L21.2048 27.3032C21.1518 27.3808 21.0645 27.427 20.9713 27.427H19.9886C19.8502 27.427 19.7694 27.269 19.8495 27.154L20.8685 25.6949L19.7848 22.4685C19.7473 22.3564 19.8289 22.2399 19.9465 22.2399H20.9133C21.0389 22.2399 21.1497 22.3235 21.186 22.4455L21.7611 24.3941L23.1181 22.3663C23.1712 22.2872 23.2595 22.2399 23.3533 22.2399Z" fill="#253B80"/>
<path fill-rule="evenodd" clip-rule="evenodd" d="M34.0208 25.8831L34.8599 20.467C34.8728 20.383 34.9446 20.3211 35.028 20.3208H35.9726C36.0769 20.3208 36.157 20.4157 36.1406 20.5207L35.3131 25.8391C35.2916 25.9795 35.1726 26.0826 35.0324 26.0826H34.1888C34.0845 26.0826 34.0044 25.988 34.0208 25.8831ZM27.5948 20.3211H25.5499C25.4103 20.3211 25.2913 20.4242 25.2695 20.5643L24.4426 25.8831C24.4261 25.988 24.5062 26.0826 24.6107 26.0826H25.6599C25.7574 26.0826 25.8408 26.0105 25.8561 25.9123L26.0907 24.4046C26.1123 24.2641 26.2315 24.1611 26.3711 24.1611H27.018C28.3651 24.1611 29.1422 23.4999 29.3454 22.1897C29.4372 21.6165 29.349 21.1661 29.0845 20.8506C28.7941 20.5044 28.2791 20.3211 27.5948 20.3211ZM27.8307 22.2637C27.7192 23.008 27.1586 23.008 26.6163 23.008H26.308L26.5248 21.6179C26.5377 21.534 26.6088 21.4721 26.6928 21.4721H26.8342C27.2031 21.4721 27.5518 21.4721 27.7316 21.6856C27.839 21.813 27.8716 22.0022 27.8307 22.2637ZM33.7058 22.2398H32.7274C32.6433 22.2398 32.5719 22.3017 32.5594 22.3858L32.5161 22.6635L32.4473 22.5629C32.2353 22.2508 31.763 22.1465 31.2913 22.1465C30.2093 22.1465 29.2855 22.9778 29.1055 24.144C29.0123 24.7256 29.1447 25.2818 29.4699 25.6697C29.7689 26.0264 30.1953 26.175 30.7032 26.175C31.5749 26.175 32.0583 25.6063 32.0583 25.6063L32.0147 25.8824C31.9982 25.9879 32.0783 26.0825 32.1833 26.0825H33.0649C33.2045 26.0825 33.3234 25.9793 33.3453 25.839L33.8747 22.4394C33.8909 22.3348 33.8108 22.2398 33.7058 22.2398ZM32.3412 24.173C32.2472 24.7405 31.8027 25.1214 31.2365 25.1214C30.9527 25.1214 30.725 25.0289 30.5791 24.8536C30.4344 24.6795 30.38 24.4317 30.4255 24.1558C30.5142 23.5931 30.9651 23.1998 31.5226 23.1998C31.8007 23.1998 32.0266 23.2934 32.1756 23.4703C32.3253 23.6489 32.3845 23.8982 32.3412 24.173Z" fill="#179BD7"/>
<path d="M20.5778 18.4184L20.8291 16.7988L20.2692 16.7856H17.5957L19.4537 4.83379C19.4594 4.79771 19.4782 4.76407 19.5056 4.74018C19.533 4.71629 19.5681 4.70312 19.6046 4.70312H24.1126C25.6093 4.70312 26.642 5.01907 27.1813 5.64266C27.4341 5.93521 27.5951 6.24091 27.673 6.57733C27.7546 6.93034 27.7561 7.35209 27.6763 7.86647L27.6705 7.90402V8.2336L27.9234 8.37891C28.1363 8.49348 28.3054 8.62464 28.4351 8.77481C28.6515 9.02493 28.7914 9.34283 28.8504 9.71971C28.9115 10.1073 28.8913 10.5686 28.7914 11.0908C28.676 11.6914 28.4895 12.2146 28.2377 12.6427C28.006 13.0371 27.7109 13.3642 27.3606 13.6178C27.0261 13.8587 26.6286 14.0416 26.1793 14.1586C25.7437 14.2736 25.2474 14.3317 24.7028 14.3317H24.352C24.1012 14.3317 23.8574 14.4233 23.6662 14.5877C23.4744 14.7554 23.3474 14.9844 23.3086 15.2351L23.2821 15.3809L22.8381 18.2355L22.8179 18.3404C22.8126 18.3736 22.8035 18.3902 22.7901 18.4014C22.778 18.4115 22.7607 18.4184 22.7438 18.4184H20.5778Z" fill="#253B80"/>
<path d="M28.1624 7.94238C28.149 8.02965 28.1336 8.11887 28.1163 8.21054C27.5217 11.3071 25.4879 12.3768 22.8902 12.3768H21.5676C21.2499 12.3768 20.9822 12.6108 20.9327 12.9287L20.2555 17.2857L20.0637 18.5207C20.0315 18.7294 20.1902 18.9176 20.3977 18.9176H22.7436C23.0214 18.9176 23.2573 18.7128 23.301 18.4349L23.3241 18.3139L23.7659 15.4704L23.7942 15.3145C23.8374 15.0356 24.0738 14.8308 24.3516 14.8308H24.7025C26.9752 14.8308 28.7545 13.8947 29.2746 11.1857C29.4918 10.054 29.3793 9.10914 28.8045 8.44457C28.6306 8.24418 28.4147 8.07792 28.1624 7.94238Z" fill="#179BD7"/>
<path d="M27.5404 7.6906C27.4497 7.66378 27.3559 7.6394 27.2597 7.61746C27.1632 7.59602 27.0641 7.577 26.9623 7.56042C26.6056 7.50191 26.215 7.47412 25.7963 7.47412H22.263C22.1759 7.47412 22.0933 7.49411 22.0193 7.53019C21.8564 7.60966 21.7353 7.76618 21.706 7.95779L20.9542 12.7876L20.9326 12.9285C20.9821 12.6107 21.2498 12.3766 21.5675 12.3766H22.8901C25.4878 12.3766 27.5218 11.3064 28.1162 8.21035C28.134 8.11868 28.1489 8.02946 28.1623 7.94219C28.0119 7.86125 27.849 7.79202 27.6735 7.73301C27.6304 7.71839 27.5857 7.70426 27.5404 7.6906Z" fill="#222D65"/>
<path d="M21.7059 7.95789C21.7352 7.76627 21.8564 7.60977 22.0193 7.53078C22.0938 7.49469 22.176 7.47471 22.2629 7.47471H25.7964C26.215 7.47471 26.6057 7.5025 26.9622 7.56101C27.0642 7.57758 27.1632 7.5966 27.2598 7.61805C27.356 7.64 27.4496 7.66438 27.5405 7.69118C27.5856 7.70484 27.6303 7.71897 27.674 7.73312C27.8494 7.79211 28.0124 7.86184 28.1628 7.94229C28.3397 6.79796 28.1614 6.01883 27.5516 5.31331C26.8792 4.53662 25.6657 4.2041 24.1129 4.2041H19.6047C19.2875 4.2041 19.017 4.43812 18.9679 4.75651L17.0903 16.8312C17.0532 17.07 17.2348 17.2856 17.4722 17.2856H20.2555L20.9543 12.7877L21.7059 7.95789Z" fill="#253B80"/>
</svg>
