<svg width="46" height="32" viewBox="0 0 46 32" fill="none" xmlns="http://www.w3.org/2000/svg">
<rect x="0.5" y="0.5" width="45" height="31" rx="5.5" fill="white" stroke="#EBE3D9"/>
<path fill-rule="evenodd" clip-rule="evenodd" d="M10.9692 11.9108C11.5869 11.9636 12.2047 11.5936 12.5908 11.1244C12.9705 10.642 13.2214 9.99434 13.1571 9.3335C12.6101 9.35993 11.9344 9.70357 11.5483 10.186C11.1944 10.6023 10.8919 11.2764 10.9692 11.9108ZM18.318 20.4224V10.1199H22.0826C24.026 10.1199 25.3838 11.4944 25.3838 13.5034C25.3838 15.5123 24.0002 16.9001 22.0311 16.9001H19.8753V20.4224H18.318ZM13.1506 12.0363C12.6064 12.0042 12.1098 12.2044 11.7087 12.3662C11.4505 12.4702 11.2319 12.5584 11.0656 12.5584C10.879 12.5584 10.6514 12.4655 10.3959 12.3613L10.3959 12.3613C10.061 12.2247 9.67815 12.0685 9.27668 12.076C8.35647 12.0892 7.5006 12.6245 7.03084 13.477C6.06558 15.1819 6.77987 17.7063 7.71296 19.0941C8.16985 19.7814 8.71683 20.5347 9.43756 20.5083C9.75464 20.496 9.98273 20.3966 10.2188 20.2938C10.4905 20.1753 10.7728 20.0523 11.2136 20.0523C11.6392 20.0523 11.9091 20.1721 12.1683 20.2871C12.4147 20.3965 12.6513 20.5015 13.0026 20.4951C13.7491 20.4819 14.2188 19.8078 14.6757 19.1205C15.1688 18.3829 15.3855 17.663 15.4183 17.5538L15.4222 17.5411C15.4214 17.5403 15.4153 17.5375 15.4046 17.5324C15.2397 17.4549 13.9799 16.8626 13.9679 15.2744C13.9557 13.9414 14.9671 13.266 15.1263 13.1596L15.1263 13.1596C15.136 13.1532 15.1425 13.1488 15.1455 13.1465C14.502 12.1685 13.4981 12.0628 13.1506 12.0363ZM28.2281 20.5017C29.2063 20.5017 30.1136 19.9928 30.5255 19.1866H30.5576V20.4224H31.9991V15.2943C31.9991 13.8074 30.8408 12.8492 29.0583 12.8492C27.4044 12.8492 26.1818 13.8206 26.1367 15.1555H27.5396C27.6554 14.5211 28.2281 14.1048 29.0132 14.1048C29.9656 14.1048 30.4997 14.5607 30.4997 15.4V15.9683L28.5563 16.0873C26.7481 16.1996 25.7699 16.9596 25.7699 18.2813C25.7699 19.6162 26.7802 20.5017 28.2281 20.5017ZM28.6463 19.2791C27.8162 19.2791 27.2885 18.8694 27.2885 18.2416C27.2885 17.594 27.7969 17.2173 28.7686 17.1578L30.4996 17.0455V17.627C30.4996 18.5919 29.7017 19.2791 28.6463 19.2791ZM36.7803 20.8255C36.1561 22.6296 35.4418 23.2244 33.9231 23.2244C33.8073 23.2244 33.4212 23.2111 33.3311 23.1847V21.9489C33.4276 21.9622 33.6657 21.9754 33.788 21.9754C34.4765 21.9754 34.8626 21.678 35.1007 20.9048L35.2423 20.4488L32.6039 12.9483H34.232L36.066 19.0346H36.0982L37.9322 12.9483H39.5152L36.7803 20.8255ZM19.8752 11.468H21.6706C23.0219 11.468 23.7942 12.2081 23.7942 13.51C23.7942 14.8119 23.0219 15.5586 21.6641 15.5586H19.8752V11.468Z" fill="black"/>
</svg>
