<svg width="46" height="32" viewBox="0 0 46 32" fill="none" xmlns="http://www.w3.org/2000/svg">
<rect x="0.5" y="0.5" width="45" height="31" rx="5.5" fill="#25459A"/>
<rect x="0.5" y="0.5" width="45" height="31" rx="5.5" stroke="#EBE3D9"/>
<path d="M23.5213 14.317C23.504 15.6171 24.7384 16.3427 25.6682 16.774C26.6237 17.2166 26.9446 17.5004 26.9409 17.8962C26.9336 18.502 26.1788 18.7693 25.4722 18.7797C24.2397 18.7979 23.5231 18.4629 22.9533 18.2095L22.5094 20.1874C23.081 20.4382 24.1394 20.657 25.237 20.6665C27.8134 20.6665 29.499 19.4558 29.5081 17.5785C29.5182 15.1962 26.0466 15.0642 26.0703 13.9993C26.0785 13.6765 26.4021 13.3319 27.1114 13.2443C27.4624 13.2 28.4315 13.1662 29.53 13.6478L29.9612 11.7341C29.3705 11.5293 28.6111 11.3332 27.6657 11.3332C25.2407 11.3332 23.535 12.5604 23.5213 14.317ZM34.1047 11.4981C33.6343 11.4981 33.2377 11.7593 33.0609 12.1603L29.3805 20.5259H31.955L32.4674 19.1781H35.6135L35.9107 20.5259H38.1798L36.1997 11.4981H34.1047ZM34.4648 13.9369L35.2078 17.3268H33.173L34.4648 13.9369ZM20.3998 11.4981L18.3704 20.5259H20.8237L22.8521 11.4981H20.3998ZM16.7705 11.4981L14.2169 17.6428L13.184 12.418C13.0628 11.8348 12.5841 11.4981 12.0526 11.4981H7.87817L7.81982 11.7602C8.67678 11.9372 9.65043 12.2228 10.2403 12.5283C10.6013 12.7149 10.7043 12.878 10.8228 13.3215L12.7792 20.5259H15.372L19.3468 11.4981H16.7705Z" fill="white"/>
</svg>
