<svg width="46" height="32" viewBox="0 0 46 32" fill="none" xmlns="http://www.w3.org/2000/svg">
<rect x="0.5" y="0.5" width="45" height="31" rx="5.5" fill="#F58220"/>
<rect x="0.5" y="0.5" width="45" height="31" rx="5.5" stroke="#EBE3D9"/>
<path d="M24.0036 12.873C22.2798 12.873 20.8813 14.2455 20.8813 15.9394C20.8813 17.7402 22.2191 19.0865 24.0036 19.0865C25.7435 19.0865 27.1173 17.7224 27.1173 15.9747C27.1173 14.2374 25.7527 12.873 24.0036 12.873Z" fill="black"/>
<path d="M6.27859 12.9847H4.6001V18.9517H6.26986C7.15576 18.9517 7.79646 18.7377 8.35849 18.2632C9.02537 17.6995 9.42088 16.8495 9.42088 15.9711C9.42088 14.2094 8.12962 12.9847 6.27859 12.9847ZM7.6135 17.4662C7.25257 17.7982 6.78791 17.9415 6.04949 17.9415H5.74275V13.9951H6.04949C6.78791 13.9951 7.23477 14.1294 7.6135 14.478C8.00844 14.8359 8.244 15.3902 8.244 15.9625C8.244 16.536 8.00844 17.1097 7.6135 17.4662ZM9.948 18.9517H11.0887V12.9847H9.948V18.9517ZM13.8815 15.2736C13.1959 15.0147 12.9942 14.8439 12.9942 14.5229C12.9942 14.1469 13.3534 13.8608 13.8458 13.8608C14.1882 13.8608 14.4691 14.0038 14.7684 14.3428L15.3646 13.5478C14.8731 13.1084 14.285 12.8851 13.6435 12.8851C12.6086 12.8851 11.818 13.6191 11.818 14.5934C11.818 15.4173 12.1864 15.8374 13.2577 16.2321C13.7057 16.3923 13.9334 16.4992 14.0478 16.5722C14.276 16.7244 14.3906 16.9383 14.3906 17.1887C14.3906 17.6726 14.0128 18.0299 13.5029 18.0299C12.9586 18.0299 12.5201 17.7529 12.2565 17.234L11.52 17.9596C12.0457 18.7458 12.6779 19.0959 13.5479 19.0959C14.733 19.0959 15.5665 18.2895 15.5665 17.1357C15.5665 16.1871 15.1812 15.7573 13.8815 15.2736ZM15.9263 15.9711C15.9263 17.7266 17.2786 19.0863 19.0173 19.0863C19.5088 19.0863 19.9302 18.9873 20.4487 18.7377V17.368C19.9915 17.8337 19.5876 18.0211 19.0695 18.0211C17.9197 18.0211 17.1027 17.1709 17.1027 15.9625C17.1027 14.8178 17.9452 13.914 19.0173 13.914C19.5608 13.914 19.9741 14.1107 20.4487 14.5849V13.2153C19.9483 12.9566 19.535 12.8501 19.0434 12.8501C17.3136 12.8501 15.9263 14.2372 15.9263 15.9711ZM29.7012 16.9929L28.1385 12.9847H26.8918L29.3771 19.1041H29.9912L32.52 12.9847H31.2825L29.7012 16.9929ZM33.0391 18.9517H36.2781V17.9415H34.1802V16.3298H36.1979V15.3194H34.1802V13.9951H36.2781V12.9847H33.0391V18.9517ZM40.7983 14.7457C40.7983 13.6279 40.0444 12.9847 38.7267 12.9847H37.0321V18.9517H38.1745V16.5535H38.324L39.9035 18.9517H41.3082L39.4634 16.4382C40.325 16.2586 40.7983 15.6589 40.7983 14.7457ZM38.5068 15.7311H38.1745V13.923H38.525C39.2377 13.923 39.6238 14.2281 39.6238 14.8088C39.6238 15.4078 39.2377 15.7311 38.5068 15.7311Z" fill="black"/>
</svg>
