<svg width="46" height="32" viewBox="0 0 46 32" fill="none" xmlns="http://www.w3.org/2000/svg">
<rect x="0.5" y="0.5" width="45" height="31" rx="5.5" fill="white" stroke="#EBE3D9"/>
<path d="M36.1392 19.0913H36.1616L38.0806 14.2075H39.4282L35.2837 23.9995H34.0054L35.5454 20.5747L32.8267 14.2075H34.1743L36.1392 19.0913ZM29.6528 13.9858C30.5694 13.9859 31.2932 14.2393 31.8247 14.7388C32.3562 15.2383 32.6186 15.9359 32.6187 16.8159V21.0103H31.4321V20.0669H31.3784C30.8623 20.8439 30.1837 21.2329 29.3286 21.2329C28.6048 21.2329 27.9886 21.0106 27.5034 20.5669C27.0258 20.1546 26.7556 19.5431 26.771 18.9009C26.7711 18.1954 27.0333 17.6404 27.5493 17.2202C28.0655 16.8001 28.7588 16.5942 29.6216 16.5942C30.3611 16.5942 30.9623 16.7368 31.4399 17.0063V16.7134C31.4399 16.2773 31.2547 15.8641 30.9312 15.5786C30.5999 15.2775 30.1758 15.1108 29.7368 15.1108C29.0436 15.1109 28.4967 15.4126 28.0962 16.0151L27.0024 15.3091C27.5879 14.4292 28.4743 13.9858 29.6528 13.9858ZM23.9224 11.0679C24.663 11.0908 25.3735 11.3968 25.9009 11.9321C27.0253 13.0105 27.0949 14.8263 26.0396 15.9917L25.9009 16.1343C25.3231 16.6972 24.6136 16.9829 23.7739 16.9829H21.7251V21.0103H20.4849V11.0679H23.9224ZM29.8149 17.6245C29.3142 17.6245 28.8903 17.7518 28.5513 17.9976C28.22 18.2434 28.0503 18.5526 28.0503 18.9253C28.0503 19.2582 28.2044 19.567 28.4585 19.7573C28.7358 19.9793 29.0747 20.0982 29.4214 20.0903C29.9453 20.0903 30.4461 19.8762 30.8159 19.4956C31.2243 19.0992 31.4331 18.6314 31.4331 18.0923C31.0479 17.7752 30.5082 17.6166 29.8149 17.6245ZM21.7251 15.7612H23.8052C24.2675 15.7771 24.7149 15.5866 25.0308 15.2456C25.6777 14.5558 25.6629 13.4458 24.9927 12.7798C24.6768 12.4626 24.2521 12.2886 23.8052 12.2886H21.7251V15.7612Z" fill="#3C4043"/>
<path d="M17.4434 16.1103C17.4434 15.7218 17.4126 15.3332 17.351 14.9526H12.1201V17.149H15.1169C14.9936 17.8547 14.593 18.489 14.0075 18.8854V20.3127H15.7948C16.8425 19.3215 17.4434 17.8547 17.4434 16.1103Z" fill="#4285F4"/>
<path d="M12.12 21.6923C13.6146 21.6923 14.878 21.1849 15.7947 20.3127L14.0074 18.8855C13.5067 19.2343 12.8673 19.4326 12.12 19.4326C10.6717 19.4326 9.44682 18.4256 9.0077 17.0776H7.1665V18.5524C8.10636 20.4792 10.0246 21.6923 12.12 21.6923Z" fill="#068332"/>
<path d="M9.00799 17.0776C8.77684 16.372 8.77684 15.6028 9.00799 14.8892V13.4224H7.1665C6.37289 15.032 6.37289 16.9349 7.1665 18.5445L9.00799 17.0776Z" fill="#FEBC11"/>
<path d="M12.12 12.5345C12.9135 12.5187 13.6762 12.8279 14.2463 13.3909L15.8332 11.7575C14.824 10.7901 13.499 10.2589 12.12 10.2748C10.0246 10.2748 8.10636 11.4958 7.1665 13.4226L9.0077 14.8974C9.44682 13.5415 10.6717 12.5345 12.12 12.5345Z" fill="#B00000"/>
</svg>
