<svg width="19" height="14" viewBox="0 0 19 14" fill="none" xmlns="http://www.w3.org/2000/svg">
<path d="M6.1333 7C6.1333 7.79565 6.44937 8.55871 7.01198 9.12132C7.57459 9.68393 8.33765 10 9.1333 10C9.92895 10 10.692 9.68393 11.2546 9.12132C11.8172 8.55871 12.1333 7.79565 12.1333 7C12.1333 6.20435 11.8172 5.44129 11.2546 4.87868C10.692 4.31607 9.92895 4 9.1333 4C8.33765 4 7.57459 4.31607 7.01198 4.87868C6.44937 5.44129 6.1333 6.20435 6.1333 7Z" fill="#03421C"/>
<path d="M17.1333 7C15 11 12.3333 13 9.1333 13C5.9333 13 3.26663 11 1.1333 7C3.26663 3 5.9333 1 9.1333 1C12.3333 1 15 3 17.1333 7Z" stroke="#03421C" stroke-width="2" stroke-linecap="round"/>
</svg>
